<mxfile host="app.diagrams.net" modified="2024-06-08T09:14:39.793Z" agent="Mozilla/5.0 (Windows NT 10.0; Win64; x64) AppleWebKit/537.36 (KHTML, like Gecko) Chrome/125.0.0.0 Safari/537.36 Edg/125.0.0.0" etag="Uu5-pkRVl6WPOK8OvwwQ" version="24.5.2" type="device">
  <diagram name="Page-1" id="r55egGYTYfPF11YwZ8IX">
    <mxGraphModel dx="713" dy="393" grid="1" gridSize="10" guides="1" tooltips="1" connect="1" arrows="1" fold="1" page="1" pageScale="1" pageWidth="850" pageHeight="1100" math="0" shadow="0">
      <root>
        <mxCell id="0" />
        <mxCell id="1" parent="0" />
        <mxCell id="8J-j7O59oHdIaS3BFxA8-6" value="&lt;font color=&quot;#330000&quot; style=&quot;font-size: 10px;&quot;&gt;&lt;b&gt;Client&lt;/b&gt;&lt;/font&gt;" style="fontColor=#0066CC;verticalAlign=top;verticalLabelPosition=bottom;labelPosition=center;align=center;html=1;outlineConnect=0;fillColor=#CCCCCC;strokeColor=#6881B3;gradientColor=none;gradientDirection=north;strokeWidth=2;shape=mxgraph.networks.monitor;shadow=1;" vertex="1" parent="1">
          <mxGeometry x="88" y="650" width="40" height="30" as="geometry" />
        </mxCell>
        <mxCell id="8J-j7O59oHdIaS3BFxA8-7" value="" style="endArrow=classic;html=1;rounded=0;shadow=1;" edge="1" parent="1">
          <mxGeometry width="50" height="50" relative="1" as="geometry">
            <mxPoint x="100" y="600" as="sourcePoint" />
            <mxPoint x="240" y="600" as="targetPoint" />
          </mxGeometry>
        </mxCell>
        <mxCell id="8J-j7O59oHdIaS3BFxA8-24" value="&lt;font color=&quot;#0066cc&quot; style=&quot;font-size: 10px;&quot;&gt;request&lt;/font&gt;" style="edgeLabel;html=1;align=center;verticalAlign=middle;resizable=0;points=[];" vertex="1" connectable="0" parent="8J-j7O59oHdIaS3BFxA8-7">
          <mxGeometry x="-0.1304" y="7" relative="1" as="geometry">
            <mxPoint as="offset" />
          </mxGeometry>
        </mxCell>
        <mxCell id="8J-j7O59oHdIaS3BFxA8-8" value="&lt;font color=&quot;#330000&quot; style=&quot;font-size: 10px;&quot;&gt;&lt;b&gt;Client&lt;/b&gt;&lt;/font&gt;" style="fontColor=#0066CC;verticalAlign=top;verticalLabelPosition=bottom;labelPosition=center;align=center;html=1;outlineConnect=0;fillColor=#CCCCCC;strokeColor=#6881B3;gradientColor=none;gradientDirection=north;strokeWidth=2;shape=mxgraph.networks.mobile;shadow=1;" vertex="1" parent="1">
          <mxGeometry x="108" y="520" width="20" height="30" as="geometry" />
        </mxCell>
        <mxCell id="8J-j7O59oHdIaS3BFxA8-9" value="" style="endArrow=classic;html=1;rounded=0;shadow=1;" edge="1" parent="1">
          <mxGeometry width="50" height="50" relative="1" as="geometry">
            <mxPoint x="140" y="550" as="sourcePoint" />
            <mxPoint x="240" y="590" as="targetPoint" />
          </mxGeometry>
        </mxCell>
        <mxCell id="8J-j7O59oHdIaS3BFxA8-22" value="&lt;font color=&quot;#0066cc&quot; style=&quot;font-size: 10px;&quot;&gt;request&lt;/font&gt;" style="edgeLabel;html=1;align=center;verticalAlign=middle;resizable=0;points=[];rotation=30;" vertex="1" connectable="0" parent="8J-j7O59oHdIaS3BFxA8-9">
          <mxGeometry x="0.018" y="5" relative="1" as="geometry">
            <mxPoint x="1" y="-7" as="offset" />
          </mxGeometry>
        </mxCell>
        <mxCell id="8J-j7O59oHdIaS3BFxA8-10" value="" style="endArrow=classic;html=1;rounded=0;shadow=1;" edge="1" parent="1">
          <mxGeometry width="50" height="50" relative="1" as="geometry">
            <mxPoint x="140" y="670" as="sourcePoint" />
            <mxPoint x="240" y="610" as="targetPoint" />
          </mxGeometry>
        </mxCell>
        <mxCell id="8J-j7O59oHdIaS3BFxA8-13" value="Internet" style="shape=image;verticalLabelPosition=bottom;labelBackgroundColor=default;verticalAlign=top;aspect=fixed;imageAspect=0;image=https://www.pngkey.com/png/full/450-4500237_internet-icon-world-wide-web-logo-png.png;fontSize=10;fontStyle=1;shadow=1;" vertex="1" parent="1">
          <mxGeometry x="250" y="575" width="50" height="50" as="geometry" />
        </mxCell>
        <mxCell id="8J-j7O59oHdIaS3BFxA8-14" value="" style="endArrow=classic;html=1;rounded=0;shadow=1;" edge="1" parent="1">
          <mxGeometry width="50" height="50" relative="1" as="geometry">
            <mxPoint x="480" y="600" as="sourcePoint" />
            <mxPoint x="560" y="600" as="targetPoint" />
          </mxGeometry>
        </mxCell>
        <mxCell id="8J-j7O59oHdIaS3BFxA8-15" value="" style="endArrow=classic;html=1;rounded=1;shadow=1;entryX=0;entryY=1;entryDx=0;entryDy=0;curved=0;" edge="1" parent="1">
          <mxGeometry width="50" height="50" relative="1" as="geometry">
            <mxPoint x="480" y="590" as="sourcePoint" />
            <mxPoint x="680" y="550.76" as="targetPoint" />
            <Array as="points">
              <mxPoint x="480" y="550" />
            </Array>
          </mxGeometry>
        </mxCell>
        <mxCell id="8J-j7O59oHdIaS3BFxA8-18" value="&lt;font color=&quot;#0066cc&quot; style=&quot;font-size: 10px;&quot;&gt;forward&lt;/font&gt;" style="edgeLabel;html=1;align=center;verticalAlign=middle;resizable=0;points=[];rotation=0;" vertex="1" connectable="0" parent="8J-j7O59oHdIaS3BFxA8-15">
          <mxGeometry x="-0.0779" y="-8" relative="1" as="geometry">
            <mxPoint x="-30" y="-18" as="offset" />
          </mxGeometry>
        </mxCell>
        <mxCell id="8J-j7O59oHdIaS3BFxA8-16" value="&lt;font color=&quot;#0066cc&quot; style=&quot;font-size: 10px;&quot;&gt;forward&lt;/font&gt;" style="text;html=1;align=center;verticalAlign=middle;resizable=0;points=[];autosize=1;strokeColor=none;fillColor=none;rotation=0;shadow=1;" vertex="1" parent="1">
          <mxGeometry x="490" y="575" width="60" height="30" as="geometry" />
        </mxCell>
        <mxCell id="8J-j7O59oHdIaS3BFxA8-20" value="Replica" style="shape=image;verticalLabelPosition=bottom;labelBackgroundColor=default;verticalAlign=top;aspect=fixed;imageAspect=0;image=https://img.icons8.com/water-color/100/centralized-network.png;fontSize=10;fontStyle=1;shadow=1;" vertex="1" parent="1">
          <mxGeometry x="680" y="519" width="62" height="62" as="geometry" />
        </mxCell>
        <mxCell id="8J-j7O59oHdIaS3BFxA8-23" value="&lt;font color=&quot;#0066cc&quot; style=&quot;font-size: 10px;&quot;&gt;request&lt;/font&gt;" style="text;html=1;align=center;verticalAlign=middle;resizable=0;points=[];autosize=1;strokeColor=none;fillColor=none;rotation=-30;" vertex="1" parent="1">
          <mxGeometry x="140" y="630" width="60" height="30" as="geometry" />
        </mxCell>
        <mxCell id="8J-j7O59oHdIaS3BFxA8-25" value="&lt;font style=&quot;font-size: 10px;&quot;&gt;&lt;b&gt;Forward Proxy&lt;/b&gt;&lt;/font&gt;" style="image;aspect=fixed;html=1;points=[];align=center;fontSize=12;image=img/lib/azure2/other/API_Proxy.svg;clipPath=inset(0% 0% 0% 0%);shadow=1;" vertex="1" parent="1">
          <mxGeometry x="390" y="578" width="79.2" height="44" as="geometry" />
        </mxCell>
        <mxCell id="8J-j7O59oHdIaS3BFxA8-28" value="" style="endArrow=classic;html=1;rounded=0;shadow=1;" edge="1" parent="1">
          <mxGeometry width="50" height="50" relative="1" as="geometry">
            <mxPoint x="310" y="600" as="sourcePoint" />
            <mxPoint x="380" y="600" as="targetPoint" />
          </mxGeometry>
        </mxCell>
        <mxCell id="8J-j7O59oHdIaS3BFxA8-34" value="&lt;b&gt;&lt;font style=&quot;font-size: 10px;&quot;&gt;Client&lt;/font&gt;&lt;/b&gt;" style="sketch=0;pointerEvents=1;shadow=1;dashed=0;html=1;strokeColor=#9673a6;fillColor=#9999FF;labelPosition=center;verticalLabelPosition=bottom;verticalAlign=top;align=center;outlineConnect=0;shape=mxgraph.veeam2.laptop;rounded=1;fontFamily=Helvetica;fontSize=12;" vertex="1" parent="1">
          <mxGeometry x="40" y="575" width="48" height="28.000000000000004" as="geometry" />
        </mxCell>
        <mxCell id="8J-j7O59oHdIaS3BFxA8-55" value="Replica" style="shape=image;verticalLabelPosition=bottom;labelBackgroundColor=default;verticalAlign=top;aspect=fixed;imageAspect=0;image=https://img.icons8.com/water-color/100/centralized-network.png;fontSize=10;fontStyle=1;shadow=1;" vertex="1" parent="1">
          <mxGeometry x="560" y="568" width="62" height="62" as="geometry" />
        </mxCell>
        <mxCell id="8J-j7O59oHdIaS3BFxA8-96" value="" style="group;shadow=1;" vertex="1" connectable="0" parent="1">
          <mxGeometry x="70" y="720" width="220" height="200" as="geometry" />
        </mxCell>
        <mxCell id="8J-j7O59oHdIaS3BFxA8-97" value="" style="rounded=1;whiteSpace=wrap;html=1;strokeColor=default;align=center;verticalAlign=middle;fontFamily=Helvetica;fontSize=12;fontColor=default;fillColor=none;arcSize=8;shadow=1;" vertex="1" parent="8J-j7O59oHdIaS3BFxA8-96">
          <mxGeometry x="-10" width="220" height="190" as="geometry" />
        </mxCell>
        <mxCell id="8J-j7O59oHdIaS3BFxA8-98" value="External-public share" style="swimlane;whiteSpace=wrap;html=1;rounded=1;dashed=1;strokeColor=none;align=center;verticalAlign=middle;fontFamily=Helvetica;fontSize=12;fillColor=#d5e8d4;arcSize=50;startSize=20;shadow=0;" vertex="1" parent="8J-j7O59oHdIaS3BFxA8-96">
          <mxGeometry x="-10" width="220" height="40" as="geometry">
            <mxRectangle width="150" height="30" as="alternateBounds" />
          </mxGeometry>
        </mxCell>
        <mxCell id="8J-j7O59oHdIaS3BFxA8-100" value="Resource server" style="shape=image;verticalLabelPosition=bottom;labelBackgroundColor=default;verticalAlign=top;aspect=fixed;imageAspect=0;image=https://cdn.freebiesupply.com/logos/large/2x/nodejs-icon-logo-png-transparent.png;shadow=1;fontStyle=1;fontSize=10;fontColor=#330000;" vertex="1" parent="8J-j7O59oHdIaS3BFxA8-96">
          <mxGeometry x="19.998333333333285" y="40.48000000000001" width="36.37499999999999" height="40.04166666666666" as="geometry" />
        </mxCell>
        <mxCell id="8J-j7O59oHdIaS3BFxA8-120" value="Mongo database" style="shape=image;verticalLabelPosition=bottom;labelBackgroundColor=default;verticalAlign=top;aspect=fixed;imageAspect=0;image=https://logicabeans.com/wp-content/uploads/2022/08/MongoDB.png;shadow=1;fontStyle=1;fontSize=10;" vertex="1" parent="8J-j7O59oHdIaS3BFxA8-96">
          <mxGeometry x="143.54000000000002" y="40" width="36.46" height="40.52" as="geometry" />
        </mxCell>
        <mxCell id="8J-j7O59oHdIaS3BFxA8-102" value="" style="endArrow=none;html=1;rounded=0;fontFamily=Helvetica;fontSize=12;fontColor=default;fillColor=#60a917;strokeColor=#2D7600;shadow=1;startArrow=classic;startFill=1;" edge="1" parent="8J-j7O59oHdIaS3BFxA8-96">
          <mxGeometry width="50" height="50" relative="1" as="geometry">
            <mxPoint x="134" y="152" as="sourcePoint" />
            <mxPoint x="47" y="106" as="targetPoint" />
          </mxGeometry>
        </mxCell>
        <mxCell id="8J-j7O59oHdIaS3BFxA8-103" value="&lt;font color=&quot;#009900&quot; style=&quot;font-size: 9px;&quot;&gt;Download&lt;/font&gt;" style="edgeLabel;html=1;align=center;verticalAlign=middle;resizable=0;points=[];rounded=1;dashed=1;strokeColor=default;fontFamily=Helvetica;fontSize=12;fontColor=default;fillColor=none;rotation=30;" vertex="1" connectable="0" parent="8J-j7O59oHdIaS3BFxA8-102">
          <mxGeometry x="0.1229" relative="1" as="geometry">
            <mxPoint x="-2" y="9" as="offset" />
          </mxGeometry>
        </mxCell>
        <mxCell id="8J-j7O59oHdIaS3BFxA8-101" value="&lt;font color=&quot;#330000&quot; style=&quot;font-size: 10px;&quot;&gt;&lt;b&gt;Client&lt;/b&gt;&lt;/font&gt;" style="sketch=0;pointerEvents=1;shadow=1;html=1;strokeColor=#005700;fillColor=#008a00;labelPosition=center;verticalLabelPosition=bottom;verticalAlign=top;align=center;outlineConnect=0;shape=mxgraph.veeam2.laptop;rounded=1;fontFamily=Helvetica;fontSize=12;fontColor=#ffffff;" vertex="1" parent="8J-j7O59oHdIaS3BFxA8-96">
          <mxGeometry x="143.54" y="130" width="50" height="30" as="geometry" />
        </mxCell>
        <mxCell id="8J-j7O59oHdIaS3BFxA8-123" value="" style="endArrow=classic;html=1;rounded=0;fontFamily=Helvetica;fontSize=12;fontColor=default;fillColor=#60a917;strokeColor=#2D7600;shadow=1;endFill=1;" edge="1" parent="8J-j7O59oHdIaS3BFxA8-96">
          <mxGeometry width="50" height="50" relative="1" as="geometry">
            <mxPoint x="138" y="139" as="sourcePoint" />
            <mxPoint x="69" y="104" as="targetPoint" />
          </mxGeometry>
        </mxCell>
        <mxCell id="8J-j7O59oHdIaS3BFxA8-125" value="&lt;font style=&quot;font-size: 9px;&quot; color=&quot;#009900&quot;&gt;Upload&lt;/font&gt;" style="edgeLabel;html=1;align=center;verticalAlign=middle;resizable=0;points=[];rounded=1;dashed=1;strokeColor=default;fontFamily=Helvetica;fontSize=12;fontColor=default;fillColor=none;rotation=30;" vertex="1" connectable="0" parent="8J-j7O59oHdIaS3BFxA8-123">
          <mxGeometry x="0.1187" y="-5" relative="1" as="geometry">
            <mxPoint x="17" y="3" as="offset" />
          </mxGeometry>
        </mxCell>
        <mxCell id="8J-j7O59oHdIaS3BFxA8-104" value="" style="endArrow=none;html=1;rounded=0;fontFamily=Helvetica;fontSize=12;fontColor=default;fillColor=#60a917;strokeColor=#2D7600;shadow=1;" edge="1" parent="8J-j7O59oHdIaS3BFxA8-96">
          <mxGeometry width="50" height="50" relative="1" as="geometry">
            <mxPoint x="66.04" y="60.559999999999974" as="sourcePoint" />
            <mxPoint x="133.95" y="60.28" as="targetPoint" />
            <Array as="points" />
          </mxGeometry>
        </mxCell>
        <mxCell id="8J-j7O59oHdIaS3BFxA8-87" value="" style="rounded=1;whiteSpace=wrap;html=1;strokeColor=default;align=center;verticalAlign=middle;fontFamily=Helvetica;fontSize=12;fontColor=default;fillColor=none;arcSize=8;shadow=1;" vertex="1" parent="1">
          <mxGeometry x="640" y="640" width="370" height="180" as="geometry" />
        </mxCell>
        <mxCell id="8J-j7O59oHdIaS3BFxA8-88" value="Main-hub store" style="swimlane;whiteSpace=wrap;html=1;rounded=1;dashed=1;strokeColor=none;align=center;verticalAlign=middle;fontFamily=Helvetica;fontSize=12;fillColor=#f8cecc;arcSize=32;startSize=20;shadow=0;" vertex="1" parent="1">
          <mxGeometry x="640" y="640" width="370" height="40" as="geometry">
            <mxRectangle width="150" height="30" as="alternateBounds" />
          </mxGeometry>
        </mxCell>
        <mxCell id="8J-j7O59oHdIaS3BFxA8-89" value="&lt;font color=&quot;#330000&quot; style=&quot;font-size: 10px;&quot;&gt;&lt;b&gt;Client&lt;/b&gt;&lt;/font&gt;" style="sketch=0;pointerEvents=1;shadow=1;dashed=0;html=1;strokeColor=#A50040;fillColor=#d80073;labelPosition=center;verticalLabelPosition=bottom;verticalAlign=top;align=center;outlineConnect=0;shape=mxgraph.veeam2.laptop;rounded=1;fontFamily=Helvetica;fontSize=12;fontColor=#ffffff;" vertex="1" parent="1">
          <mxGeometry x="650" y="686" width="50" height="28" as="geometry" />
        </mxCell>
        <mxCell id="8J-j7O59oHdIaS3BFxA8-48" value="" style="rounded=1;whiteSpace=wrap;html=1;strokeColor=default;align=center;verticalAlign=middle;fontFamily=Helvetica;fontSize=12;fontColor=default;fillColor=none;arcSize=8;shadow=1;" vertex="1" parent="1">
          <mxGeometry x="320" y="670" width="200" height="170" as="geometry" />
        </mxCell>
        <mxCell id="8J-j7O59oHdIaS3BFxA8-49" value="Internal-multi share" style="swimlane;whiteSpace=wrap;html=1;rounded=1;dashed=1;strokeColor=none;align=center;verticalAlign=middle;fontFamily=Helvetica;fontSize=12;fillColor=#b0e3e6;arcSize=28;startSize=20;shadow=0;" vertex="1" parent="1">
          <mxGeometry x="320" y="670" width="200" height="40" as="geometry" />
        </mxCell>
        <mxCell id="8J-j7O59oHdIaS3BFxA8-50" value="&lt;font color=&quot;#330000&quot; style=&quot;font-size: 10px;&quot;&gt;&lt;b&gt;Client A&lt;/b&gt;&lt;/font&gt;" style="sketch=0;pointerEvents=1;shadow=1;dashed=0;html=1;strokeColor=#006EAF;fillColor=#1ba1e2;labelPosition=center;verticalLabelPosition=bottom;verticalAlign=top;align=center;outlineConnect=0;shape=mxgraph.veeam2.laptop;rounded=1;fontFamily=Helvetica;fontSize=12;fontColor=#ffffff;" vertex="1" parent="1">
          <mxGeometry x="330" y="701" width="44" height="28.000000000000004" as="geometry" />
        </mxCell>
        <mxCell id="8J-j7O59oHdIaS3BFxA8-52" value="&lt;font color=&quot;#330000&quot; style=&quot;font-size: 10px;&quot;&gt;&lt;b style=&quot;&quot;&gt;Client B&lt;/b&gt;&lt;/font&gt;" style="sketch=0;pointerEvents=1;shadow=1;html=1;strokeColor=#006EAF;fillColor=#1ba1e2;labelPosition=center;verticalLabelPosition=bottom;verticalAlign=top;align=center;outlineConnect=0;shape=mxgraph.veeam2.laptop;rounded=1;fontFamily=Helvetica;fontSize=12;fontColor=#ffffff;" vertex="1" parent="1">
          <mxGeometry x="465.83333333333337" y="701" width="44" height="28.000000000000004" as="geometry" />
        </mxCell>
        <mxCell id="8J-j7O59oHdIaS3BFxA8-53" value="" style="endArrow=none;html=1;rounded=0;fontFamily=Helvetica;fontSize=12;fontColor=default;fillColor=#1ba1e2;strokeColor=#006EAF;shadow=1;" edge="1" parent="1">
          <mxGeometry width="50" height="50" relative="1" as="geometry">
            <mxPoint x="443.91999999999996" y="788" as="sourcePoint" />
            <mxPoint x="483.62666666666667" y="752" as="targetPoint" />
          </mxGeometry>
        </mxCell>
        <mxCell id="8J-j7O59oHdIaS3BFxA8-68" value="&lt;font color=&quot;#004c99&quot; style=&quot;font-size: 9px;&quot;&gt;Peer&lt;/font&gt;" style="edgeLabel;html=1;align=center;verticalAlign=middle;resizable=0;points=[];rounded=1;dashed=1;strokeColor=default;fontFamily=Helvetica;fontSize=12;fontColor=default;fillColor=none;" vertex="1" connectable="0" parent="8J-j7O59oHdIaS3BFxA8-53">
          <mxGeometry x="-0.1373" y="1" relative="1" as="geometry">
            <mxPoint as="offset" />
          </mxGeometry>
        </mxCell>
        <mxCell id="8J-j7O59oHdIaS3BFxA8-54" value="" style="endArrow=none;html=1;rounded=0;fontFamily=Helvetica;fontSize=12;fontColor=default;fillColor=#1ba1e2;strokeColor=#006EAF;shadow=1;" edge="1" parent="1">
          <mxGeometry width="50" height="50" relative="1" as="geometry">
            <mxPoint x="395.91999999999996" y="789" as="sourcePoint" />
            <mxPoint x="356.21000000000004" y="751" as="targetPoint" />
          </mxGeometry>
        </mxCell>
        <mxCell id="8J-j7O59oHdIaS3BFxA8-67" value="&lt;font color=&quot;#004c99&quot; style=&quot;font-size: 9px;&quot;&gt;Peer&lt;/font&gt;" style="edgeLabel;html=1;align=center;verticalAlign=middle;resizable=0;points=[];rounded=1;dashed=1;strokeColor=default;fontFamily=Helvetica;fontSize=12;fontColor=default;fillColor=none;" vertex="1" connectable="0" parent="8J-j7O59oHdIaS3BFxA8-54">
          <mxGeometry x="0.0232" y="1" relative="1" as="geometry">
            <mxPoint as="offset" />
          </mxGeometry>
        </mxCell>
        <mxCell id="8J-j7O59oHdIaS3BFxA8-61" value="&lt;font color=&quot;#330000&quot; style=&quot;font-size: 10px;&quot;&gt;&lt;b&gt;Client C&lt;/b&gt;&lt;/font&gt;" style="sketch=0;pointerEvents=1;shadow=1;dashed=0;html=1;strokeColor=#006EAF;fillColor=#1ba1e2;labelPosition=center;verticalLabelPosition=bottom;verticalAlign=top;align=center;outlineConnect=0;shape=mxgraph.veeam2.laptop;rounded=1;fontFamily=Helvetica;fontSize=12;fontColor=#ffffff;" vertex="1" parent="1">
          <mxGeometry x="397.91999999999996" y="791" width="44" height="28.000000000000004" as="geometry" />
        </mxCell>
        <mxCell id="8J-j7O59oHdIaS3BFxA8-62" value="" style="endArrow=none;html=1;rounded=0;fontFamily=Helvetica;fontSize=12;fontColor=default;fillColor=#1ba1e2;strokeColor=#006EAF;shadow=1;" edge="1" parent="1">
          <mxGeometry width="50" height="50" relative="1" as="geometry">
            <mxPoint x="459.91999999999996" y="721" as="sourcePoint" />
            <mxPoint x="379.91999999999996" y="721" as="targetPoint" />
          </mxGeometry>
        </mxCell>
        <mxCell id="8J-j7O59oHdIaS3BFxA8-69" value="" style="edgeLabel;html=1;align=center;verticalAlign=middle;resizable=0;points=[];rounded=1;dashed=1;strokeColor=default;fontFamily=Helvetica;fontSize=12;fontColor=default;fillColor=none;" vertex="1" connectable="0" parent="8J-j7O59oHdIaS3BFxA8-62">
          <mxGeometry x="-0.0112" y="-1" relative="1" as="geometry">
            <mxPoint as="offset" />
          </mxGeometry>
        </mxCell>
        <mxCell id="8J-j7O59oHdIaS3BFxA8-70" value="&lt;font color=&quot;#004c99&quot; style=&quot;font-size: 9px;&quot;&gt;Peer&lt;/font&gt;" style="edgeLabel;html=1;align=center;verticalAlign=middle;resizable=0;points=[];rounded=1;dashed=1;strokeColor=default;fontFamily=Helvetica;fontSize=12;fontColor=default;fillColor=none;" vertex="1" connectable="0" parent="8J-j7O59oHdIaS3BFxA8-62">
          <mxGeometry x="-0.0629" y="-1" relative="1" as="geometry">
            <mxPoint x="-2" as="offset" />
          </mxGeometry>
        </mxCell>
        <mxCell id="8J-j7O59oHdIaS3BFxA8-165" value="" style="edgeLabel;html=1;align=center;verticalAlign=middle;resizable=0;points=[];rounded=1;dashed=1;strokeColor=default;fontFamily=Helvetica;fontSize=12;fontColor=default;fillColor=none;" vertex="1" connectable="0" parent="8J-j7O59oHdIaS3BFxA8-62">
          <mxGeometry x="0.0554" y="-1" relative="1" as="geometry">
            <mxPoint as="offset" />
          </mxGeometry>
        </mxCell>
        <mxCell id="8J-j7O59oHdIaS3BFxA8-139" value="" style="endArrow=classic;html=1;rounded=1;fontFamily=Helvetica;fontSize=12;fontColor=default;curved=0;shadow=1;entryX=1;entryY=0.5;entryDx=0;entryDy=0;" edge="1" parent="1" target="8J-j7O59oHdIaS3BFxA8-127">
          <mxGeometry width="50" height="50" relative="1" as="geometry">
            <mxPoint x="591.14" y="650" as="sourcePoint" />
            <mxPoint x="590" y="930" as="targetPoint" />
            <Array as="points">
              <mxPoint x="591" y="680" />
              <mxPoint x="591" y="930" />
            </Array>
          </mxGeometry>
        </mxCell>
        <mxCell id="8J-j7O59oHdIaS3BFxA8-142" value="&lt;font color=&quot;#004c99&quot; style=&quot;font-size: 9px;&quot;&gt;Routes&lt;/font&gt;" style="edgeLabel;html=1;align=center;verticalAlign=middle;resizable=0;points=[];rounded=1;dashed=1;strokeColor=default;fontFamily=Helvetica;fontSize=12;fontColor=default;fillColor=none;" vertex="1" connectable="0" parent="8J-j7O59oHdIaS3BFxA8-139">
          <mxGeometry x="-0.2016" y="-5" relative="1" as="geometry">
            <mxPoint x="5" y="1" as="offset" />
          </mxGeometry>
        </mxCell>
        <mxCell id="8J-j7O59oHdIaS3BFxA8-127" value="" style="rounded=1;whiteSpace=wrap;html=1;strokeColor=default;align=center;verticalAlign=middle;fontFamily=Helvetica;fontSize=12;fontColor=default;fillColor=none;arcSize=8;shadow=1;" vertex="1" parent="1">
          <mxGeometry x="300" y="880" width="260" height="100" as="geometry" />
        </mxCell>
        <mxCell id="8J-j7O59oHdIaS3BFxA8-128" value="External-protected share" style="swimlane;whiteSpace=wrap;html=1;rounded=1;dashed=1;strokeColor=none;align=center;verticalAlign=middle;fontFamily=Helvetica;fontSize=12;fillColor=#e1d5e7;arcSize=17;startSize=20;shadow=0;" vertex="1" parent="1">
          <mxGeometry x="300" y="880" width="260" height="40" as="geometry">
            <mxRectangle width="150" height="30" as="alternateBounds" />
          </mxGeometry>
        </mxCell>
        <mxCell id="8J-j7O59oHdIaS3BFxA8-131" value="" style="endArrow=classic;html=1;rounded=0;fontFamily=Helvetica;fontSize=12;fontColor=default;fillColor=#60a917;strokeColor=#4C0099;shadow=1;startArrow=none;startFill=0;endFill=1;" edge="1" parent="1">
          <mxGeometry width="50" height="50" relative="1" as="geometry">
            <mxPoint x="490" y="929.8200000000002" as="sourcePoint" />
            <mxPoint x="380" y="929.8200000000002" as="targetPoint" />
          </mxGeometry>
        </mxCell>
        <mxCell id="8J-j7O59oHdIaS3BFxA8-132" value="&lt;font color=&quot;#4c0099&quot; style=&quot;font-size: 9px;&quot;&gt;Upload&lt;/font&gt;" style="edgeLabel;html=1;align=center;verticalAlign=middle;resizable=0;points=[];rounded=1;dashed=1;strokeColor=default;fontFamily=Helvetica;fontSize=12;fontColor=default;fillColor=none;rotation=0;" vertex="1" connectable="0" parent="8J-j7O59oHdIaS3BFxA8-131">
          <mxGeometry x="0.1229" relative="1" as="geometry">
            <mxPoint x="7" y="-9" as="offset" />
          </mxGeometry>
        </mxCell>
        <mxCell id="8J-j7O59oHdIaS3BFxA8-134" value="" style="endArrow=none;html=1;rounded=0;fontFamily=Helvetica;fontSize=12;fontColor=default;fillColor=#60a917;strokeColor=#4C0099;shadow=1;endFill=0;startArrow=classic;startFill=1;" edge="1" parent="1">
          <mxGeometry width="50" height="50" relative="1" as="geometry">
            <mxPoint x="490" y="941" as="sourcePoint" />
            <mxPoint x="380" y="941" as="targetPoint" />
          </mxGeometry>
        </mxCell>
        <mxCell id="8J-j7O59oHdIaS3BFxA8-135" value="&lt;font color=&quot;#4c0099&quot; style=&quot;font-size: 9px;&quot;&gt;Download&lt;/font&gt;" style="edgeLabel;html=1;align=center;verticalAlign=middle;resizable=0;points=[];rounded=1;dashed=1;strokeColor=default;fontFamily=Helvetica;fontSize=12;fontColor=default;fillColor=none;rotation=0;" vertex="1" connectable="0" parent="8J-j7O59oHdIaS3BFxA8-134">
          <mxGeometry x="0.1187" y="-5" relative="1" as="geometry">
            <mxPoint x="2" y="13" as="offset" />
          </mxGeometry>
        </mxCell>
        <mxCell id="8J-j7O59oHdIaS3BFxA8-138" value="Firebase database" style="shape=image;verticalLabelPosition=bottom;labelBackgroundColor=default;verticalAlign=top;aspect=fixed;imageAspect=0;image=https://assets-global.website-files.com/631ec5866e474e5b101f6a41/6596996b5c4dca1a76a21e8a_Firebase.png;fontStyle=1;fontSize=10;shadow=1;" vertex="1" parent="1">
          <mxGeometry x="330" y="910" width="40" height="40" as="geometry" />
        </mxCell>
        <mxCell id="8J-j7O59oHdIaS3BFxA8-130" value="&lt;font color=&quot;#330000&quot; style=&quot;font-size: 10px;&quot;&gt;&lt;b&gt;Client&lt;/b&gt;&lt;/font&gt;" style="sketch=0;pointerEvents=1;shadow=1;html=1;strokeColor=none;fillColor=#4C0099;labelPosition=center;verticalLabelPosition=bottom;verticalAlign=top;align=center;outlineConnect=0;shape=mxgraph.veeam2.laptop;rounded=1;fontFamily=Helvetica;fontSize=12;fontColor=#ffffff;" vertex="1" parent="1">
          <mxGeometry x="500" y="920" width="50" height="30" as="geometry" />
        </mxCell>
        <mxCell id="8J-j7O59oHdIaS3BFxA8-141" value="" style="endArrow=classic;html=1;rounded=0;fontFamily=Helvetica;fontSize=12;fontColor=default;shadow=1;" edge="1" parent="1">
          <mxGeometry width="50" height="50" relative="1" as="geometry">
            <mxPoint x="591" y="859" as="sourcePoint" />
            <mxPoint x="279" y="860" as="targetPoint" />
          </mxGeometry>
        </mxCell>
        <mxCell id="8J-j7O59oHdIaS3BFxA8-33" value="" style="rounded=1;whiteSpace=wrap;html=1;strokeColor=default;align=center;verticalAlign=middle;fontFamily=Helvetica;fontSize=12;fontColor=default;fillColor=none;arcSize=8;shadow=1;" vertex="1" parent="1">
          <mxGeometry x="640" y="840" width="200" height="155" as="geometry" />
        </mxCell>
        <mxCell id="8J-j7O59oHdIaS3BFxA8-43" value="Internal-single share" style="swimlane;whiteSpace=wrap;html=1;rounded=1;dashed=1;strokeColor=none;align=center;verticalAlign=middle;fontFamily=Helvetica;fontSize=12;fillColor=#ffe6cc;arcSize=26;startSize=20;shadow=0;" vertex="1" parent="1">
          <mxGeometry x="640" y="840" width="200" height="40" as="geometry">
            <mxRectangle width="150" height="30" as="alternateBounds" />
          </mxGeometry>
        </mxCell>
        <mxCell id="8J-j7O59oHdIaS3BFxA8-40" value="&lt;font color=&quot;#330000&quot; style=&quot;font-size: 10px;&quot;&gt;&lt;b&gt;Client A&lt;/b&gt;&lt;/font&gt;" style="sketch=0;pointerEvents=1;shadow=1;dashed=0;html=1;strokeColor=#BD7000;fillColor=#f0a30a;labelPosition=center;verticalLabelPosition=bottom;verticalAlign=top;align=center;outlineConnect=0;shape=mxgraph.veeam2.laptop;rounded=1;fontFamily=Helvetica;fontSize=12;fontColor=#000000;" vertex="1" parent="1">
          <mxGeometry x="650" y="869.48" width="44" height="28.000000000000004" as="geometry" />
        </mxCell>
        <mxCell id="8J-j7O59oHdIaS3BFxA8-42" value="Socket server" style="shape=image;verticalLabelPosition=bottom;labelBackgroundColor=default;verticalAlign=top;aspect=fixed;imageAspect=0;image=https://cdn.freebiesupply.com/logos/large/2x/nodejs-icon-logo-png-transparent.png;shadow=1;fontStyle=1;fontSize=10;fontColor=#330000;imageBackground=none;" vertex="1" parent="1">
          <mxGeometry x="721.8083333333333" y="930" width="36.37499999999999" height="40.04166666666666" as="geometry" />
        </mxCell>
        <mxCell id="8J-j7O59oHdIaS3BFxA8-39" value="&lt;font color=&quot;#330000&quot; style=&quot;font-size: 10px;&quot;&gt;&lt;b&gt;Client B&lt;/b&gt;&lt;/font&gt;" style="sketch=0;pointerEvents=1;shadow=1;html=1;strokeColor=#BD7000;fillColor=#f0a30a;labelPosition=center;verticalLabelPosition=bottom;verticalAlign=top;align=center;outlineConnect=0;shape=mxgraph.veeam2.laptop;rounded=1;fontFamily=Helvetica;fontSize=12;fontColor=#000000;" vertex="1" parent="1">
          <mxGeometry x="785.8333333333334" y="869.48" width="44" height="28.000000000000004" as="geometry" />
        </mxCell>
        <mxCell id="8J-j7O59oHdIaS3BFxA8-45" value="" style="endArrow=none;html=1;rounded=0;fontFamily=Helvetica;fontSize=12;fontColor=default;fillColor=#f0a30a;strokeColor=#BD7000;shadow=1;" edge="1" parent="1">
          <mxGeometry width="50" height="50" relative="1" as="geometry">
            <mxPoint x="763" y="949" as="sourcePoint" />
            <mxPoint x="803.6266666666667" y="920.48" as="targetPoint" />
          </mxGeometry>
        </mxCell>
        <mxCell id="8J-j7O59oHdIaS3BFxA8-63" value="&lt;font color=&quot;#994c00&quot; style=&quot;font-size: 9px;&quot;&gt;TCP&lt;/font&gt;" style="edgeLabel;html=1;align=center;verticalAlign=middle;resizable=0;points=[];rounded=1;dashed=1;strokeColor=default;fontFamily=Helvetica;fontSize=12;fontColor=default;fillColor=none;" vertex="1" connectable="0" parent="8J-j7O59oHdIaS3BFxA8-45">
          <mxGeometry x="0.1229" relative="1" as="geometry">
            <mxPoint as="offset" />
          </mxGeometry>
        </mxCell>
        <mxCell id="8J-j7O59oHdIaS3BFxA8-46" value="" style="endArrow=none;html=1;rounded=0;fontFamily=Helvetica;fontSize=12;fontColor=default;fillColor=#f0a30a;strokeColor=#BD7000;shadow=1;" edge="1" parent="1">
          <mxGeometry width="50" height="50" relative="1" as="geometry">
            <mxPoint x="716" y="949" as="sourcePoint" />
            <mxPoint x="676.21" y="919.48" as="targetPoint" />
          </mxGeometry>
        </mxCell>
        <mxCell id="8J-j7O59oHdIaS3BFxA8-66" value="&lt;font color=&quot;#994c00&quot; style=&quot;font-size: 9px;&quot;&gt;TCP&lt;/font&gt;" style="edgeLabel;html=1;align=center;verticalAlign=middle;resizable=0;points=[];rounded=1;dashed=1;strokeColor=default;fontFamily=Helvetica;fontSize=12;fontColor=default;fillColor=none;" vertex="1" connectable="0" parent="8J-j7O59oHdIaS3BFxA8-46">
          <mxGeometry x="-0.1147" y="-1" relative="1" as="geometry">
            <mxPoint x="-9" as="offset" />
          </mxGeometry>
        </mxCell>
        <mxCell id="8J-j7O59oHdIaS3BFxA8-144" value="Convex database" style="shape=image;verticalLabelPosition=bottom;labelBackgroundColor=default;verticalAlign=top;aspect=fixed;imageAspect=0;image=https://cdn.sanity.io/images/o0o2tn5x/production/285d09c87a0afb46b81044a49932f14539eb4778-400x400.png;fontStyle=1;fontSize=10;shadow=1;" vertex="1" parent="1">
          <mxGeometry x="729.3199999999999" y="760" width="38.6" height="38.6" as="geometry" />
        </mxCell>
        <mxCell id="8J-j7O59oHdIaS3BFxA8-149" value="" style="endArrow=classic;html=1;rounded=1;fontFamily=Helvetica;fontSize=12;fontColor=default;strokeColor=#99004D;curved=0;shadow=1;" edge="1" parent="1">
          <mxGeometry width="50" height="50" relative="1" as="geometry">
            <mxPoint x="700" y="701" as="sourcePoint" />
            <mxPoint x="760" y="701" as="targetPoint" />
            <Array as="points">
              <mxPoint x="700.11" y="701" />
            </Array>
          </mxGeometry>
        </mxCell>
        <mxCell id="8J-j7O59oHdIaS3BFxA8-150" value="&lt;font color=&quot;#99004d&quot; style=&quot;font-size: 9px;&quot;&gt;Auth&lt;/font&gt;" style="edgeLabel;html=1;align=center;verticalAlign=middle;resizable=0;points=[];rounded=1;dashed=1;strokeColor=default;fontFamily=Helvetica;fontSize=12;fontColor=default;fillColor=none;" vertex="1" connectable="0" parent="8J-j7O59oHdIaS3BFxA8-149">
          <mxGeometry x="-0.2625" relative="1" as="geometry">
            <mxPoint x="6" y="-10" as="offset" />
          </mxGeometry>
        </mxCell>
        <mxCell id="8J-j7O59oHdIaS3BFxA8-151" value="Clerk" style="shape=image;verticalLabelPosition=bottom;labelBackgroundColor=default;verticalAlign=top;aspect=fixed;imageAspect=0;image=https://cdn.sanity.io/images/o0o2tn5x/production/2399b991025c365aafaa6fca85d91deac801e654-1046x1046.png;shadow=1;fontStyle=1;fontSize=10;" vertex="1" parent="1">
          <mxGeometry x="767.92" y="680" width="40" height="40" as="geometry" />
        </mxCell>
        <mxCell id="8J-j7O59oHdIaS3BFxA8-152" value="" style="endArrow=classic;html=1;rounded=1;fontFamily=Helvetica;fontSize=12;fontColor=default;strokeColor=#99004D;curved=0;shadow=1;" edge="1" parent="1">
          <mxGeometry width="50" height="50" relative="1" as="geometry">
            <mxPoint x="670" y="740" as="sourcePoint" />
            <mxPoint x="720" y="783" as="targetPoint" />
            <Array as="points">
              <mxPoint x="670" y="783" />
            </Array>
          </mxGeometry>
        </mxCell>
        <mxCell id="8J-j7O59oHdIaS3BFxA8-153" value="&lt;font color=&quot;#99004d&quot; style=&quot;font-size: 9px;&quot;&gt;CRUD&lt;/font&gt;" style="edgeLabel;html=1;align=center;verticalAlign=middle;resizable=0;points=[];rounded=1;dashed=1;strokeColor=default;fontFamily=Helvetica;fontSize=12;fontColor=default;fillColor=none;" vertex="1" connectable="0" parent="8J-j7O59oHdIaS3BFxA8-152">
          <mxGeometry x="0.3929" y="-1" relative="1" as="geometry">
            <mxPoint y="-10" as="offset" />
          </mxGeometry>
        </mxCell>
        <mxCell id="8J-j7O59oHdIaS3BFxA8-154" value="" style="endArrow=classic;html=1;rounded=1;fontFamily=Helvetica;fontSize=12;fontColor=default;curved=0;strokeColor=#99004D;shadow=1;" edge="1" parent="1">
          <mxGeometry width="50" height="50" relative="1" as="geometry">
            <mxPoint x="807.92" y="700" as="sourcePoint" />
            <mxPoint x="980" y="720" as="targetPoint" />
            <Array as="points">
              <mxPoint x="980" y="700" />
            </Array>
          </mxGeometry>
        </mxCell>
        <mxCell id="8J-j7O59oHdIaS3BFxA8-155" value="&lt;font color=&quot;#99004d&quot; style=&quot;font-size: 9px;&quot;&gt;OAuth&lt;/font&gt;" style="edgeLabel;html=1;align=center;verticalAlign=middle;resizable=0;points=[];rounded=1;dashed=1;strokeColor=default;fontFamily=Helvetica;fontSize=12;fontColor=default;fillColor=none;" vertex="1" connectable="0" parent="8J-j7O59oHdIaS3BFxA8-154">
          <mxGeometry x="-0.1736" relative="1" as="geometry">
            <mxPoint x="3" y="-10" as="offset" />
          </mxGeometry>
        </mxCell>
        <mxCell id="8J-j7O59oHdIaS3BFxA8-156" value="GitHub" style="shape=image;verticalLabelPosition=bottom;labelBackgroundColor=default;verticalAlign=top;aspect=fixed;imageAspect=0;image=https://pngimg.com/uploads/github/github_PNG40.png;clipPath=inset(5.33% 11.33% 13.33% 5.67%);shadow=1;fontSize=10;fontStyle=1" vertex="1" parent="1">
          <mxGeometry x="900" y="730.21" width="37.84" height="37.08" as="geometry" />
        </mxCell>
        <mxCell id="8J-j7O59oHdIaS3BFxA8-157" value="Google" style="shape=image;verticalLabelPosition=bottom;labelBackgroundColor=default;verticalAlign=top;aspect=fixed;imageAspect=0;image=https://static-00.iconduck.com/assets.00/google-icon-2048x2048-czn3g8x8.png;shadow=1;fontStyle=1;fontSize=10;" vertex="1" parent="1">
          <mxGeometry x="840" y="730" width="35.83" height="35.83" as="geometry" />
        </mxCell>
        <mxCell id="8J-j7O59oHdIaS3BFxA8-158" value="Facebook" style="shape=image;verticalLabelPosition=bottom;labelBackgroundColor=default;verticalAlign=top;aspect=fixed;imageAspect=0;image=https://1.bp.blogspot.com/-S8HTBQqmfcs/XN0ACIRD9PI/AAAAAAAAAlo/FLhccuLdMfIFLhocRjWqsr9cVGdTN_8sgCPcBGAYYCw/s1600/f_logo_RGB-Blue_1024.png;shadow=1;fontStyle=1;fontSize=10;" vertex="1" parent="1">
          <mxGeometry x="960" y="730" width="35.83" height="35.83" as="geometry" />
        </mxCell>
        <mxCell id="8J-j7O59oHdIaS3BFxA8-159" value="" style="endArrow=classic;html=1;rounded=0;fontFamily=Helvetica;fontSize=12;fontColor=default;strokeColor=#99004D;" edge="1" parent="1">
          <mxGeometry width="50" height="50" relative="1" as="geometry">
            <mxPoint x="920" y="700" as="sourcePoint" />
            <mxPoint x="920" y="720" as="targetPoint" />
          </mxGeometry>
        </mxCell>
        <mxCell id="8J-j7O59oHdIaS3BFxA8-160" value="" style="endArrow=classic;html=1;rounded=0;fontFamily=Helvetica;fontSize=12;fontColor=default;strokeColor=#99004D;" edge="1" parent="1">
          <mxGeometry width="50" height="50" relative="1" as="geometry">
            <mxPoint x="858" y="700" as="sourcePoint" />
            <mxPoint x="857.71" y="720" as="targetPoint" />
          </mxGeometry>
        </mxCell>
        <mxCell id="8J-j7O59oHdIaS3BFxA8-143" value="" style="endArrow=classic;html=1;rounded=0;fontFamily=Helvetica;fontSize=12;fontColor=default;shadow=1;entryX=1.002;entryY=0.294;entryDx=0;entryDy=0;entryPerimeter=0;" edge="1" parent="1" target="8J-j7O59oHdIaS3BFxA8-48">
          <mxGeometry width="50" height="50" relative="1" as="geometry">
            <mxPoint x="591" y="720" as="sourcePoint" />
            <mxPoint x="520" y="710" as="targetPoint" />
          </mxGeometry>
        </mxCell>
        <mxCell id="8J-j7O59oHdIaS3BFxA8-162" value="" style="endArrow=classic;html=1;rounded=0;fontFamily=Helvetica;fontSize=12;fontColor=default;shadow=1;" edge="1" parent="1">
          <mxGeometry width="50" height="50" relative="1" as="geometry">
            <mxPoint x="591" y="880" as="sourcePoint" />
            <mxPoint x="640" y="880" as="targetPoint" />
          </mxGeometry>
        </mxCell>
        <mxCell id="8J-j7O59oHdIaS3BFxA8-163" value="" style="endArrow=classic;html=1;rounded=0;fontFamily=Helvetica;fontSize=12;fontColor=default;shadow=1;" edge="1" parent="1">
          <mxGeometry width="50" height="50" relative="1" as="geometry">
            <mxPoint x="591" y="699.77" as="sourcePoint" />
            <mxPoint x="640" y="699.77" as="targetPoint" />
          </mxGeometry>
        </mxCell>
        <mxCell id="8J-j7O59oHdIaS3BFxA8-164" value="Celedrive architecture" style="text;html=1;align=center;verticalAlign=middle;whiteSpace=wrap;rounded=0;fontFamily=Helvetica;fontSize=12;fontColor=default;" vertex="1" parent="1">
          <mxGeometry x="390" y="1020" width="185" height="20" as="geometry" />
        </mxCell>
      </root>
    </mxGraphModel>
  </diagram>
</mxfile>
